<svg xmlns="http://www.w3.org/2000/svg" height="48" width="48" version="1.1" viewBox="0 0 48 48"><path stroke-linejoin="round" d="m21.775 45.718c16.74 0.201 22.171-9.794 22.637-26.774 0.177-3.279 0.227-13.054-1.24-14.886-1.555-2.4083-4.919-1.8447-6.573-1.7372-12.413 2.5632-21.956 0.7075-29.238 0.1918-5.2791 0.856-3.6829 3.2778-4.6195 15.634-0.3076 23.615 7.7035 26.735 19.034 27.571z" fill-opacity=".71338" stroke="#000" stroke-width="0.3" fill="#c35156"/><g><path stroke-linejoin="round" d="m21.775 45.718c16.74 0.201 22.171-9.794 22.637-26.774 0.177-3.279 0.227-13.054-1.24-14.886-1.555-2.4083-4.919-1.8447-6.573-1.7372-12.413 2.5632-21.956 0.7075-29.238 0.1918-5.2791 0.856-3.6829 3.2778-4.6195 15.634-0.3076 23.615 7.7035 26.735 19.034 27.571z" display="none" stroke="#000" stroke-width="0.3" fill="#8bb387"/><path stroke-linejoin="round" d="m21.775 45.718c16.74 0.201 22.171-9.794 22.637-26.774 0.177-3.279 0.227-13.054-1.24-14.886-1.555-2.4083-4.919-1.8447-6.573-1.7372-12.413 2.5632-21.956 0.7075-29.238 0.1918-5.2791 0.856-3.6829 3.2778-4.6195 15.634-0.3076 23.615 7.7035 26.735 19.034 27.571z" display="none" stroke="#000" stroke-width="0.3" fill="#59a8bb"/><g stroke-width="0"><path opacity="0.93" d="m15.216 25.818a6.1855 8.27 0 0 1 -6.2355 -8.152 6.1855 8.27 0 0 1 6.0585 -8.3861 6.1855 8.27 0 0 1 6.31 8.0481 6.1855 8.27 0 0 1 -5.981 8.486" fill="#fff"/><path opacity="0.93" d="m30.974 25.594a6.1855 8.27 0 0 1 -6.2353 -8.1515 6.1855 8.27 0 0 1 6.0585 -8.3864 6.1855 8.27 0 0 1 6.3097 8.0485 6.1855 8.27 0 0 1 -5.981 8.4853" fill="#fff"/><path d="m15.106 18.506a3.6565 3.7087 0 0 1 -3.6859 -3.6556 3.6565 3.7087 0 0 1 3.5814 -3.761 3.6565 3.7087 0 0 1 3.7299 3.6094 3.6565 3.7087 0 0 1 -3.5356 3.8053" fill="#4e4e4e"/><path d="m30.808 18.884a3.6565 3.7087 0 0 1 -3.6859 -3.6556 3.6565 3.7087 0 0 1 3.5814 -3.761 3.6565 3.7087 0 0 1 3.7299 3.6094 3.6565 3.7087 0 0 1 -3.5356 3.8053" fill="#4e4e4e"/><path fill="#fff" d="m24.002 35.898a12.712 1.9831 0 0 1 -12.814 -1.9547 12.712 1.9831 0 0 1 12.451 -2.011 12.712 1.9831 0 0 1 12.967 1.9299 12.712 1.9831 0 0 1 -12.292 2.0347"/></g></g></svg>
