<?xml version="1.0" encoding="UTF-8" standalone="no"?>
<svg
   xmlns:dc="http://purl.org/dc/elements/1.1/"
   xmlns:cc="http://creativecommons.org/ns#"
   xmlns:rdf="http://www.w3.org/1999/02/22-rdf-syntax-ns#"
   xmlns:svg="http://www.w3.org/2000/svg"
   xmlns="http://www.w3.org/2000/svg"
   xmlns:sodipodi="http://sodipodi.sourceforge.net/DTD/sodipodi-0.dtd"
   xmlns:inkscape="http://www.inkscape.org/namespaces/inkscape"
   viewBox="0 0 48 48"
   height="48"
   width="48"
   id="svg2"
   version="1.1"
   sodipodi:docname="icon-all_new.svg"
   inkscape:version="0.92.1 r15371">
  <sodipodi:namedview
     pagecolor="#ffffff"
     bordercolor="#666666"
     borderopacity="1"
     objecttolerance="10"
     gridtolerance="10"
     guidetolerance="10"
     inkscape:pageopacity="0"
     inkscape:pageshadow="2"
     inkscape:window-width="1440"
     inkscape:window-height="839"
     id="namedview24"
     showgrid="false"
     inkscape:zoom="9.8333333"
     inkscape:cx="0.10414891"
     inkscape:cy="22.071943"
     inkscape:window-x="0"
     inkscape:window-y="32"
     inkscape:window-maximized="1"
     inkscape:current-layer="svg2" />
  <metadata
     id="metadata8">
    <rdf:RDF>
      <cc:Work
         rdf:about="">
        <dc:format>image/svg+xml</dc:format>
        <dc:type
           rdf:resource="http://purl.org/dc/dcmitype/StillImage" />
        <dc:title />
      </cc:Work>
    </rdf:RDF>
  </metadata>
  <defs
     id="defs6">
    <filter
       height="1.1049945"
       y="-0.052497262"
       width="1.1387428"
       x="-0.069371387"
       id="filter5641"
       style="color-interpolation-filters:sRGB">
      <feGaussianBlur
         id="feGaussianBlur5643"
         stdDeviation="0.32009145" />
    </filter>
    <filter
       height="1.1049945"
       y="-0.052497262"
       width="1.1387428"
       x="-0.069371387"
       id="filter5645"
       style="color-interpolation-filters:sRGB">
      <feGaussianBlur
         id="feGaussianBlur5647"
         stdDeviation="0.32009145" />
    </filter>
    <filter
       height="1.1076572"
       y="-0.053828602"
       width="1.1093936"
       x="-0.054696802"
       id="filter6065"
       style="color-interpolation-filters:sRGB">
      <feGaussianBlur
         id="feGaussianBlur6067"
         stdDeviation="0.1862808" />
    </filter>
    <filter
       height="1.1076572"
       y="-0.053828602"
       width="1.1093936"
       x="-0.054696802"
       id="filter6069"
       style="color-interpolation-filters:sRGB">
      <feGaussianBlur
         id="feGaussianBlur6071"
         stdDeviation="0.1862808" />
    </filter>
    <filter
       height="1.0259191"
       y="-0.012959527"
       width="1.0268991"
       x="-0.013449566"
       id="filter6168"
       style="color-interpolation-filters:sRGB">
      <feGaussianBlur
         id="feGaussianBlur6170"
         stdDeviation="0.23432706" />
    </filter>
    <filter
       height="1.0259191"
       y="-0.012959527"
       width="1.0268991"
       x="-0.013449566"
       id="filter6218"
       style="color-interpolation-filters:sRGB">
      <feGaussianBlur
         id="feGaussianBlur6220"
         stdDeviation="0.23432706" />
    </filter>
  </defs>
  <path
     sodipodi:nodetypes="ccccccc"
     inkscape:connector-curvature="0"
     style="display:none;opacity:1;fill:#c35156;fill-opacity:0.71337579;stroke:#000000;stroke-width:0.30000001;stroke-linecap:butt;stroke-linejoin:round;stroke-miterlimit:4;stroke-dasharray:none;stroke-dashoffset:0;stroke-opacity:1"
     d="M 21.775347,45.71825 C 38.515494,45.918522 43.945556,35.923868 44.412446,18.944476 44.588548,15.665363 44.639189,5.890073 43.172059,4.0578588 41.617217,1.6496572 38.25321,2.2133444 36.598927,2.3207739 24.186136,4.8840139 14.643429,3.0283472 7.3615339,2.5126474 2.0819028,3.3685774 3.6781341,5.7904169 2.7415069,18.146691 2.4338928,41.762099 10.445012,44.881539 21.775347,45.71825 Z"
     id="path4855" />
  <path
     sodipodi:nodetypes="ccccccc"
     inkscape:connector-curvature="0"
     style="display:none;opacity:1;fill:#8bb387;fill-opacity:1;stroke:#000000;stroke-width:0.30000001;stroke-linecap:butt;stroke-linejoin:round;stroke-miterlimit:4;stroke-dasharray:none;stroke-dashoffset:0;stroke-opacity:1"
     d="M 21.775347,45.71825 C 38.515494,45.918522 43.945556,35.923868 44.412446,18.944476 44.588548,15.665363 44.639189,5.890073 43.172059,4.0578588 41.617217,1.6496572 38.25321,2.2133444 36.598927,2.3207739 24.186136,4.8840139 14.643429,3.0283472 7.3615339,2.5126474 2.0819028,3.3685774 3.6781341,5.7904169 2.7415069,18.146691 2.4338928,41.762099 10.445012,44.881539 21.775347,45.71825 Z"
     id="path4853" />
  <path
     id="path3744"
     d="M 21.775347,45.71825 C 38.515494,45.918522 43.945556,35.923868 44.412446,18.944476 44.588548,15.665363 44.639189,5.890073 43.172059,4.0578588 41.617217,1.6496572 38.25321,2.2133444 36.598927,2.3207739 24.186136,4.8840139 14.643429,3.0283472 7.3615339,2.5126474 2.0819028,3.3685774 3.6781341,5.7904169 2.7415069,18.146691 2.4338928,41.762099 10.445012,44.881539 21.775347,45.71825 Z"
     style="display:inline;opacity:1;fill:#59a8bb;fill-opacity:1;stroke:#000000;stroke-width:0.30000001;stroke-linecap:butt;stroke-linejoin:round;stroke-miterlimit:4;stroke-dasharray:none;stroke-dashoffset:0;stroke-opacity:1"
     inkscape:connector-curvature="0"
     sodipodi:nodetypes="ccccccc" />
  <path
     d="M 15.21574,25.817863 A 6.1855096,8.2699783 0 0 1 8.9804667,17.666325 6.1855096,8.2699783 0 0 1 15.038978,9.2799075 6.1855096,8.2699783 0 0 1 21.348671,17.328431 6.1855096,8.2699783 0 0 1 15.367665,25.813713"
     id="path4553"
     style="display:inline;opacity:0.93000034;fill:#ffffff;fill-opacity:1;stroke:#000000;stroke-width:0;stroke-linecap:butt;stroke-linejoin:round;stroke-miterlimit:4;stroke-dasharray:none;stroke-dashoffset:0;stroke-opacity:1"
     inkscape:connector-curvature="0" />
  <path
     d="m 30.974049,25.594366 a 6.1855096,8.2699783 0 0 1 -6.235272,-8.151538 6.1855096,8.2699783 0 0 1 6.058511,-8.3864185 6.1855096,8.2699783 0 0 1 6.309693,8.0485235 6.1855096,8.2699783 0 0 1 -5.981007,8.485283"
     id="path4553-3"
     style="display:inline;opacity:0.93000034;fill:#ffffff;fill-opacity:1;stroke:#000000;stroke-width:0;stroke-linecap:butt;stroke-linejoin:round;stroke-miterlimit:4;stroke-dasharray:none;stroke-dashoffset:0;stroke-opacity:1"
     inkscape:connector-curvature="0" />
  <path
     d="m 15.106376,18.506336 a 3.6564743,3.7087453 0 0 1 -3.685891,-3.65563 3.6564743,3.7087453 0 0 1 3.581402,-3.760963 3.6564743,3.7087453 0 0 1 3.729883,3.609431 3.6564743,3.7087453 0 0 1 -3.535585,3.805301"
     id="path4576-6"
     style="display:inline;opacity:1;fill:#4e4e4e;fill-opacity:1;stroke:#000000;stroke-width:0;stroke-linecap:butt;stroke-linejoin:round;stroke-miterlimit:4;stroke-dasharray:none;stroke-dashoffset:0;stroke-opacity:1"
     inkscape:connector-curvature="0" />
  <path
     d="m 30.8085,18.88351 a 3.6564743,3.7087453 0 0 1 -3.685891,-3.655629 3.6564743,3.7087453 0 0 1 3.581402,-3.760964 3.6564743,3.7087453 0 0 1 3.729883,3.609432 3.6564743,3.7087453 0 0 1 -3.535586,3.8053"
     id="path4576"
     style="display:inline;opacity:1;fill:#4e4e4e;fill-opacity:1;stroke:#000000;stroke-width:0;stroke-linecap:butt;stroke-linejoin:round;stroke-miterlimit:4;stroke-dasharray:none;stroke-dashoffset:0;stroke-opacity:1"
     inkscape:connector-curvature="0" />
  <path
     style="opacity:1;fill:#ffffff;fill-opacity:1;stroke:#000000;stroke-width:0;stroke-linecap:butt;stroke-linejoin:round;stroke-miterlimit:4;stroke-dasharray:none;stroke-dashoffset:0;stroke-opacity:1"
     id="path4849"
     sodipodi:type="arc"
     sodipodi:cx="23.898294"
     sodipodi:cy="33.915257"
     sodipodi:rx="12.711843"
     sodipodi:ry="1.9830513"
     sodipodi:start="1.5626491"
     sodipodi:end="1.5380819"
     sodipodi:open="true"
     d="m 24.00186,35.898242 a 12.711843,1.9830513 0 0 1 -12.81411,-1.954651 12.711843,1.9830513 0 0 1 12.450849,-2.010972 12.711843,1.9830513 0 0 1 12.96705,1.929949 12.711843,1.9830513 0 0 1 -12.291568,2.034679" />
</svg>
